
		<svg xmlns="http://www.w3.org/2000/svg" xmlns:xlink="http://www.w3.org/1999/xlink" version="1.1" width="3138.8888888888887" height="937.5">
			
			<g transform="scale(6.944444444444445) translate(10, 10)">
				<defs id="SvgjsDefs1120"></defs><g id="SvgjsG1121" featureKey="root" fill="#ffffff"></g><g id="SvgjsG1122" featureKey="container1" fill="#201a60" transform="matrix(2.04,0,0,2.04,0,9)"><path d="M5,0H50a0,0,0,0,1,0,0V45a5,5,0,0,1-5,5H0a0,0,0,0,1,0,0V5A5,5,0,0,1,5,0Z"></path></g><g id="SvgjsG1123" featureKey="text4" fill="#d5cf12" transform="matrix(5.8027472371658195,0,0,5.8027472371658195,14.334586945094632,-38.80061993798325)"><path d="M2.0703 22.890575 l0 -4.5117 l5.1367 0 q1.396484375 0 2.55859375 -0.712890625 q0.9375 0.8984375 0.9375 2.109375 q0 1.2890625 -1.025390625 2.197265625 q-1.025390625 0.91796875 -2.470703125 0.91796875 l-5.1367 0 z M7.207 17.285175 l-5.1367 0 l0 -0.625 l5.1367 0 q0.791015625 0 1.513671875 0.3125 q-0.72265625 0.3125 -1.513671875 0.3125 z M9.7656 16.279275 q-1.162109375 -0.712890625 -2.55859375 -0.712890625 l-5.1367 0 l0 -4.5117 l5.1367 0 q1.4453125 0 2.470703125 0.91796875 q1.025390625 0.908203125 1.025390625 2.197265625 q0 1.2109375 -0.9375 2.109375 z M10.449 11.191375 q-1.34765625 -1.23046875 -3.2421875 -1.23046875 l-5.6836 0 l0 0.0097656 l-0.54688 0 l0 14.004 l0.54688 0 l0 0.0097656 l5.6836 0 q1.89453125 0 3.2421875 -1.23046875 q1.34765625 -1.240234375 1.34765625 -2.978515625 q0 -1.6015625 -1.171875 -2.802734375 q1.171875 -1.201171875 1.171875 -2.802734375 q0 -1.73828125 -1.34765625 -2.978515625 z"></path></g><g id="SvgjsG1124" featureKey="text1" fill="#201a60" transform="matrix(4.303692853607463,0,0,4.303692853607463,117.79816306301161,-29.672854384161433)"><path d="M2.0703 22.890575 l0 -4.5117 l5.1367 0 q1.396484375 0 2.55859375 -0.712890625 q0.9375 0.8984375 0.9375 2.109375 q0 1.2890625 -1.025390625 2.197265625 q-1.025390625 0.91796875 -2.470703125 0.91796875 l-5.1367 0 z M7.207 17.285175 l-5.1367 0 l0 -0.625 l5.1367 0 q0.791015625 0 1.513671875 0.3125 q-0.72265625 0.3125 -1.513671875 0.3125 z M9.7656 16.279275 q-1.162109375 -0.712890625 -2.55859375 -0.712890625 l-5.1367 0 l0 -4.5117 l5.1367 0 q1.4453125 0 2.470703125 0.91796875 q1.025390625 0.908203125 1.025390625 2.197265625 q0 1.2109375 -0.9375 2.109375 z M10.449 11.191375 q-1.34765625 -1.23046875 -3.2421875 -1.23046875 l-5.6836 0 l0 0.0097656 l-0.54688 0 l0 14.004 l0.54688 0 l0 0.0097656 l5.6836 0 q1.89453125 0 3.2421875 -1.23046875 q1.34765625 -1.240234375 1.34765625 -2.978515625 q0 -1.6015625 -1.171875 -2.802734375 q1.171875 -1.201171875 1.171875 -2.802734375 q0 -1.73828125 -1.34765625 -2.978515625 z M13.7499975 23.984375 l1.0938 0 l0 -13.984 l-1.0938 0 l0 13.984 z M24.345712499999998 11.093375 q2.255859375 0.205078125 3.798828125 1.884765625 q1.54296875 1.689453125 1.54296875 3.984375 q0 2.28515625 -1.54296875 3.974609375 q-1.54296875 1.6796875 -3.798828125 1.884765625 l0 -11.729 z M19.4531125 12.978375 q1.54296875 -1.6796875 3.798828125 -1.884765625 l0 11.729 q-2.255859375 -0.205078125 -3.798828125 -1.884765625 q-1.54296875 -1.689453125 -1.54296875 -3.974609375 q0 -2.294921875 1.54296875 -3.984375 z M28.9163125 12.216375 q-1.865234375 -2.001953125 -4.5703125 -2.216796875 l0 -0.78125 l-1.0938 0 l0 0.78125 q-2.705078125 0.21484375 -4.560546875 2.20703125 q-1.875 2.01171875 -1.875 4.755859375 q0 2.734375 1.875 4.74609375 q1.85546875 1.9921875 4.560546875 2.20703125 l0 0.78125 l1.0938 0 l0 -0.78125 q2.705078125 -0.21484375 4.5703125 -2.20703125 q1.865234375 -2.01171875 1.865234375 -4.74609375 q0 -2.744140625 -1.865234375 -4.74609375 z M33.847609375 11.103375 l5.127 0 q1.435546875 0 2.451171875 0.908203125 q1.03515625 0.91796875 1.03515625 2.1875 q0 1.2890625 -1.03515625 2.20703125 q-1.015625 0.908203125 -2.451171875 0.908203125 l-5.127 0 l0 -6.2109 z M38.603509375 18.408175 l0.37109 0 q1.89453125 0 3.232421875 -1.23046875 q1.337890625 -1.240234375 1.337890625 -2.978515625 q0 -1.728515625 -1.337890625 -2.958984375 t-3.2324 -1.2305 l-5.6543 0 l0 0.0097656 l-0.55664 0 l0 13.965 l1.084 0 l0 -5.5762 l3.2715 0 l3.7207 3.9648 q1.025390625 1.123046875 1.5625 1.34765625 q0.517578125 0.21484375 2.236328125 0.21484375 l0 -1.0938 q-1.42578125 0 -1.796875 -0.146484375 q-0.37109375 -0.15625 -1.201171875 -1.064453125 z M47.685534375 22.890575 l0 -4.5117 l5.1367 0 q1.396484375 0 2.55859375 -0.712890625 q0.9375 0.8984375 0.9375 2.109375 q0 1.2890625 -1.025390625 2.197265625 q-1.025390625 0.91796875 -2.470703125 0.91796875 l-5.1367 0 z M52.822234375 17.285175 l-5.1367 0 l0 -0.625 l5.1367 0 q0.791015625 0 1.513671875 0.3125 q-0.72265625 0.3125 -1.513671875 0.3125 z M55.380834375 16.279275 q-1.162109375 -0.712890625 -2.55859375 -0.712890625 l-5.1367 0 l0 -4.5117 l5.1367 0 q1.4453125 0 2.470703125 0.91796875 q1.025390625 0.908203125 1.025390625 2.197265625 q0 1.2109375 -0.9375 2.109375 z M56.064234375 11.191375 q-1.34765625 -1.23046875 -3.2421875 -1.23046875 l-5.6836 0 l0 0.0097656 l-0.54688 0 l0 14.004 l0.54688 0 l0 0.0097656 l5.6836 0 q1.89453125 0 3.2421875 -1.23046875 q1.34765625 -1.240234375 1.34765625 -2.978515625 q0 -1.6015625 -1.171875 -2.802734375 q1.171875 -1.201171875 1.171875 -2.802734375 q0 -1.73828125 -1.34765625 -2.978515625 z M59.365231875 23.984375 l1.0938 0 l0 -13.984 l-1.0938 0 l0 13.984 z M62.412106875 10.000375 l0 1.0938 l4.8047 0 l0 12.891 l1.0938 0 l0 -12.891 l4.8047 0 l0 -1.0938 l-10.703 0 z"></path></g><g id="SvgjsG1125" featureKey="text3" fill="#201a60" transform="matrix(1.6196260333799863,0,0,1.6196260333799863,120.70429886437687,82.54138603481918)"><path d="M3 8 l0 3.9 l3.02 0 l0 2 l-3.02 0 l0 4.1 l3.8 0 l0 2 l-6 0 l0 -14 l6 0 l0 2 l-3.8 0 z M13.46 6 l2.04 0 l-2.3 6.8 l2.46 7.2 l-2.32 0 l-1.78 -5.54 l-0.04 0 l-1.8 5.54 l-2.06 0 l2.46 -7.2 l-2.3 -6.8 l2.28 0 l1.64 5.16 l0.04 0 z M20 6 c2.2 0 3.28 1.22 3.28 3.46 l0 1.82 c0 2.24 -1.08 3.46 -3.28 3.46 l-1.04 0 l0 5.26 l-2.2 0 l0 -14 l3.24 0 z M20 8 l-1.04 0 l0 4.74 l1.04 0 c0.7 0 1.08 -0.32 1.08 -1.32 l0 -2.1 c0 -1 -0.38 -1.32 -1.08 -1.32 z M26.5 8 l0 3.9 l3.02 0 l0 2 l-3.02 0 l0 4.1 l3.8 0 l0 2 l-6 0 l0 -14 l6 0 l0 2 l-3.8 0 z M38.5 20 l-2.24 0 c-0.12 -0.36 -0.2 -0.58 -0.2 -1.72 l0 -2.2 c0 -1.3 -0.44 -1.78 -1.44 -1.78 l-0.76 0 l0 5.7 l-2.2 0 l0 -14 l3.32 0 c2.28 0 3.26 1.06 3.26 3.22 l0 1.1 c0 1.44 -0.46 2.36 -1.44 2.82 l0 0.04 c1.1 0.46 1.46 1.5 1.46 2.96 l0 2.16 c0 0.68 0.02 1.18 0.24 1.7 z M34.92 8 l-1.06 0 l0 4.3 l0.86 0 c0.82 0 1.32 -0.36 1.32 -1.48 l0 -1.38 c0 -1 -0.34 -1.44 -1.12 -1.44 z M39.699999999999996 20 l0 -14 l2.2 0 l0 14 l-2.2 0 z M45.699999999999996 8 l0 3.9 l3.02 0 l0 2 l-3.02 0 l0 4.1 l3.8 0 l0 2 l-6 0 l0 -14 l6 0 l0 2 l-3.8 0 z M55.559999999999995 20 l-2.7 -10.14 l-0.04 0 l0 10.14 l-1.98 0 l0 -14 l2.76 0 l2.22 8.38 l0.04 0 l0 -8.38 l1.96 0 l0 14 l-2.26 0 z M63.699999999999996 14.780000000000001 l2.08 0 l0 1.86 c0 2.24 -1.12 3.52 -3.28 3.52 s-3.28 -1.28 -3.28 -3.52 l0 -7.28 c0 -2.24 1.12 -3.52 3.28 -3.52 s3.28 1.28 3.28 3.52 l0 1.36 l-2.08 0 l0 -1.5 c0 -1 -0.44 -1.38 -1.14 -1.38 s-1.14 0.38 -1.14 1.38 l0 7.56 c0 1 0.44 1.36 1.14 1.36 s1.14 -0.36 1.14 -1.36 l0 -2 z M69.32 8 l0 3.9 l3.02 0 l0 2 l-3.02 0 l0 4.1 l3.8 0 l0 2 l-6 0 l0 -14 l6 0 l0 2 l-3.8 0 z  M79.63999999999999 20 l0 -4.64 l-2.78 -9.36 l2.3 0 l1.66 6.38 l0.04 0 l1.66 -6.38 l2.1 0 l-2.78 9.36 l0 4.64 l-2.2 0 z M87.51999999999998 9.22 l0 7.56 c0 1 0.44 1.38 1.14 1.38 s1.14 -0.38 1.14 -1.38 l0 -7.56 c0 -1 -0.44 -1.38 -1.14 -1.38 s-1.14 0.38 -1.14 1.38 z M85.32 16.64 l0 -7.28 c0 -2.24 1.18 -3.52 3.34 -3.52 s3.34 1.28 3.34 3.52 l0 7.28 c0 2.24 -1.18 3.52 -3.34 3.52 s-3.34 -1.28 -3.34 -3.52 z M93.32 6 l2.2 0 l0 10.8 c0 1 0.44 1.36 1.14 1.36 s1.14 -0.36 1.14 -1.36 l0 -10.8 l2.08 0 l0 10.66 c0 2.24 -1.12 3.52 -3.28 3.52 s-3.28 -1.28 -3.28 -3.52 l0 -10.66 z  M108.77999999999997 14.780000000000001 l2.08 0 l0 1.86 c0 2.24 -1.12 3.52 -3.28 3.52 s-3.28 -1.28 -3.28 -3.52 l0 -7.28 c0 -2.24 1.12 -3.52 3.28 -3.52 s3.28 1.28 3.28 3.52 l0 1.36 l-2.08 0 l0 -1.5 c0 -1 -0.44 -1.38 -1.14 -1.38 s-1.14 0.38 -1.14 1.38 l0 7.56 c0 1 0.44 1.36 1.14 1.36 s1.14 -0.36 1.14 -1.36 l0 -2 z M117.07999999999998 6 l2.24 14 l-2.22 0 l-0.38 -2.54 l-2.7 0 l-0.38 2.54 l-2.02 0 l2.24 -14 l3.22 0 z M115.33999999999997 8.48 l-1.04 7.08 l2.12 0 l-1.04 -7.08 l-0.04 0 z M125.03999999999998 20 l-2.7 -10.14 l-0.04 0 l0 10.14 l-1.98 0 l0 -14 l2.76 0 l2.22 8.38 l0.04 0 l0 -8.38 l1.96 0 l0 14 l-2.26 0 z  M131.33999999999997 8 l0 -2 l6.8 0 l0 2 l-2.3 0 l0 12 l-2.2 0 l0 -12 l-2.3 0 z M145.93999999999997 20 l-2.24 0 c-0.12 -0.36 -0.2 -0.58 -0.2 -1.72 l0 -2.2 c0 -1.3 -0.44 -1.78 -1.44 -1.78 l-0.76 0 l0 5.7 l-2.2 0 l0 -14 l3.32 0 c2.28 0 3.26 1.06 3.26 3.22 l0 1.1 c0 1.44 -0.46 2.36 -1.44 2.82 l0 0.04 c1.1 0.46 1.46 1.5 1.46 2.96 l0 2.16 c0 0.68 0.02 1.18 0.24 1.7 z M142.35999999999999 8 l-1.06 0 l0 4.3 l0.86 0 c0.82 0 1.32 -0.36 1.32 -1.48 l0 -1.38 c0 -1 -0.34 -1.44 -1.12 -1.44 z M147.03999999999996 6 l2.2 0 l0 10.8 c0 1 0.44 1.36 1.14 1.36 s1.14 -0.36 1.14 -1.36 l0 -10.8 l2.08 0 l0 10.66 c0 2.24 -1.12 3.52 -3.28 3.52 s-3.28 -1.28 -3.28 -3.52 l0 -10.66 z M154.82 9.36 c0 -2.24 1.1 -3.52 3.24 -3.52 s3.24 1.28 3.24 3.52 l0 0.44 l-2.08 0 l0 -0.58 c0 -1 -0.4 -1.38 -1.1 -1.38 s-1.1 0.38 -1.1 1.38 c0 1.02 0.44 1.78 1.88 3.04 c1.84 1.62 2.42 2.78 2.42 4.38 c0 2.24 -1.12 3.52 -3.28 3.52 s-3.28 -1.28 -3.28 -3.52 l0 -0.86 l2.08 0 l0 1 c0 1 0.44 1.36 1.14 1.36 s1.14 -0.36 1.14 -1.36 c0 -1.02 -0.44 -1.78 -1.88 -3.04 c-1.84 -1.62 -2.42 -2.78 -2.42 -4.38 z M161.93999999999997 8 l0 -2 l6.8 0 l0 2 l-2.3 0 l0 12 l-2.2 0 l0 -12 l-2.3 0 z"></path></g>
			</g>
		</svg>
	