<?xml version="1.0" encoding="UTF-8"?> <svg xmlns="http://www.w3.org/2000/svg" width="55" height="33" viewBox="0 0 55 33" fill="none"><path d="M24.0097 0.61925C24.164 0.244548 24.5292 0 24.9344 0H31.5068C32.2185 0 32.7025 0.722578 32.4314 1.38075L19.6667 32.3808C19.5124 32.7555 19.1473 33 18.7421 33H12.1697C11.4579 33 10.974 32.2774 11.245 31.6193L24.0097 0.61925Z" fill="#1351D8"></path><path d="M13.3333 0.61925C13.4875 0.244548 13.8527 0 14.2579 0H20.8303C21.5421 0 22.026 0.722578 21.755 1.38075L8.99028 32.3808C8.83599 32.7555 8.47083 33 8.0656 33H1.49322C0.781438 33 0.297532 32.2774 0.568544 31.6193L13.3333 0.61925Z" fill="#2C2C2C"></path><path d="M34.6862 0.61925C34.8405 0.244548 35.2057 0 35.6109 0H42.1833C42.8951 0 43.379 0.722578 43.108 1.38075L30.3432 32.3808C30.189 32.7555 29.8238 33 29.4186 33H22.8462C22.1344 33 21.6505 32.2774 21.9215 31.6193L34.6862 0.61925Z" fill="#1351D8" fill-opacity="0.5"></path><path d="M45.3627 0.61925C45.517 0.244548 45.8821 0 46.2873 0H52.8597C53.5715 0 54.0554 0.722578 53.7844 1.38075L41.0197 32.3808C40.8654 32.7555 40.5002 33 40.095 33H33.5226C32.8109 33 32.327 32.2774 32.598 31.6193L45.3627 0.61925Z" fill="#1351D8" fill-opacity="0.25"></path></svg> 